# xmcd
#
# Track frame offsets: 
#        150
#        15336
#        27670
#        39624
#        54810
#        69546
#        80634
#        96001
#        108158
#        121342
#        132852
#        152483
#        162939
#        174163
#        190309
#        204921
#        217987
#        238727
#        258224
#        271167
#        285287
#
# Disc length: 3968 seconds
#
# Revision: 2
# Processed by: cddbd v1.5.2PL0 Copyright (c) Steve Scherf et al.
# Submitted via: ExactAudioCopy v0.99pb5
#
DISCID=0d0f7e15
DTITLE=Various Artist - Western Radio
DYEAR=2006
DGENRE=Country
TTITLE0=The Boss Hoss - Yee Haw!
TTITLE1=Johnny Cash - Ring Of Fire
TTITLE2=Lee Majors - Unknown Stuntman
TTITLE3=Texas Lightning - Like A Virgin
TTITLE4=Glen Campbell - Rhinestone Cowboy
TTITLE5=Roger Miller - King Of The Road
TTITLE6=Billy Ray Cyrus - Achy Breaky Heart
TTITLE7=Dolly Parton - 9 To 5
TTITLE8=Lynn Anderson - Rose Garden
TTITLE9=Willie Nelson - On The Road Again
TTITLE10=The Mavericks - Dance The Night Away
TTITLE11=Statler Brothers - Flowers On The Wall
TTITLE12=Leroy Pullins - I'm A Nut
TTITLE13=The Charlie Daniels Band - The Devil Went Down To Georgia
TTITLE14=Lee Hazelwood - These Boots Are Made For Walking
TTITLE15=The Shadows - Apache [Original Mono Mix]
TTITLE16=Pussycat - Mississippi
TTITLE17=Kris Kristofferson - Me And Bobby McGee
TTITLE18=Heiek Makatsch - Stand By Your Man
TTITLE19=The Soggy Bottom Boys [Feat. Dan Tyminski] - I Am A Man Of Co
TTITLE19=nstant Sorrow
TTITLE20=Hugo Montenegro and His Orchestra - The Good, The Bad and The Ugl
TTITLE20=y
EXTD=
EXTT0=
EXTT1=
EXTT2=
EXTT3=
EXTT4=
EXTT5=
EXTT6=
EXTT7=
EXTT8=
EXTT9=
EXTT10=
EXTT11=
EXTT12=
EXTT13=
EXTT14=
EXTT15=
EXTT16=
EXTT17=
EXTT18=
EXTT19=
EXTT20=
PLAYORDER=
